<svg width="776" height="765" viewBox="0 0 776 765" fill="none" xmlns="http://www.w3.org/2000/svg">
<g clip-path="url(#clip0_2067_21689)">
<path d="M596.662 0H178.761C80.034 0 0 79.9698 0 178.618V585.853C0 684.501 80.034 764.471 178.761 764.471H596.662C695.389 764.471 775.423 684.501 775.423 585.853V178.618C775.423 79.9698 695.389 0 596.662 0Z" fill="white"/>
<path d="M463.392 206.407C427.412 206.407 394.431 218.804 368.48 239.568C342.529 218.907 309.548 206.407 273.568 206.407C190.132 206.407 122.516 273.143 122.516 355.375C122.516 471.079 252.27 579.655 323.298 630.482C324.229 625.729 324.746 620.667 324.746 615.296C324.746 569.737 287.319 517.98 254.027 467.257C215.463 408.475 180.104 353.619 180.104 353.619C180.104 353.619 319.163 512.299 397.015 500.935C480.554 488.745 525.529 326.036 525.529 326.036C525.529 326.036 541.554 469.22 476.419 580.688C542.485 523.146 614.341 440.914 614.341 355.375C614.341 269.837 546.724 206.407 463.288 206.407H463.392ZM381.093 473.352C350.076 473.352 324.953 448.558 324.953 417.979C324.953 387.401 350.076 362.607 381.093 362.607C412.11 362.607 437.234 387.401 437.234 417.979C437.234 448.558 412.11 473.352 381.093 473.352Z" fill="#FF7410"/>
</g>
<defs>
<clipPath id="clip0_2067_21689">
<rect width="775.423" height="764.471" fill="white"/>
</clipPath>
</defs>
</svg>
