<svg width="41" height="41" viewBox="0 0 41 41" fill="none" xmlns="http://www.w3.org/2000/svg">
<circle cx="20.4847" cy="20.4847" r="20.4847" fill="white"/>
<path fill-rule="evenodd" clip-rule="evenodd" d="M35.4066 20.8386C35.4066 19.7347 35.3075 18.6732 35.1235 17.6542H20.4609V23.6763H28.8395C28.4786 25.6223 27.3818 27.2712 25.733 28.3751V32.2814H30.7644C33.7082 29.571 35.4066 25.5799 35.4066 20.8386Z" fill="#4285F4"/>
<path fill-rule="evenodd" clip-rule="evenodd" d="M20.4671 36.0534C24.6706 36.0534 28.1947 34.6593 30.7706 32.2816L25.7391 28.3753C24.3451 29.3094 22.5618 29.8614 20.4671 29.8614C16.4123 29.8614 12.9802 27.1228 11.7559 23.443H6.55469V27.4766C9.11639 32.5646 14.3813 36.0534 20.4671 36.0534Z" fill="#34A853"/>
<path fill-rule="evenodd" clip-rule="evenodd" d="M11.7556 23.4428C11.4442 22.5087 11.2673 21.5109 11.2673 20.4848C11.2673 19.4587 11.4442 18.4609 11.7556 17.5268V13.4932H6.55434C5.49994 15.5949 4.89844 17.9726 4.89844 20.4848C4.89844 22.9969 5.49994 25.3747 6.55434 27.4764L11.7556 23.4428Z" fill="#FBBC05"/>
<path fill-rule="evenodd" clip-rule="evenodd" d="M20.4671 11.1082C22.7529 11.1082 24.805 11.8937 26.4185 13.4364L30.8838 8.97111C28.1876 6.45894 24.6635 4.91626 20.4671 4.91626C14.3813 4.91626 9.11639 8.40499 6.55469 13.493L11.7559 17.5266C12.9802 13.8468 16.4123 11.1082 20.4671 11.1082Z" fill="#EA4335"/>
</svg>
