<svg width="34" height="29" viewBox="0 0 34 29" fill="none" xmlns="http://www.w3.org/2000/svg">
<g clip-path="url(#clip0_2066_20172)">
<path d="M23.5599 0C21.0731 0 18.7936 0.847747 17 2.26772C15.2064 0.847747 12.9269 0 10.4401 0C4.67339 0 0 4.5637 0 10.1871C0 18.0994 8.96805 25.5242 13.8773 29C13.9416 28.675 13.9773 28.3289 13.9773 27.9615C13.9773 24.846 11.3905 21.3067 9.08953 17.838C6.42413 13.8183 3.98024 10.067 3.98024 10.067C3.98024 10.067 13.5914 20.9181 18.9723 20.141C24.7461 19.3074 27.8546 8.18075 27.8546 8.18075C27.8546 8.18075 28.9622 17.9722 24.4603 25.5949C29.0265 21.6599 33.9929 16.0365 33.9929 10.1871C33.9929 4.33764 29.3266 0 23.5599 0ZM17.8718 18.2548C15.728 18.2548 13.9916 16.5593 13.9916 14.4682C13.9916 12.3771 15.728 10.6816 17.8718 10.6816C20.0156 10.6816 21.752 12.3771 21.752 14.4682C21.752 16.5593 20.0156 18.2548 17.8718 18.2548Z" fill="#FF7410"/>
</g>
<defs>
<clipPath id="clip0_2066_20172">
<rect width="34" height="29" fill="white"/>
</clipPath>
</defs>
</svg>
